<svg xmlns="http://www.w3.org/2000/svg" width="130.93" height="119.68" viewBox="0 0 130.93 119.68">
  <title>boringmouselogo</title>
  <g>
    <path d="M111,61.75H99.06a33.16,33.16,0,0,0,.43-15.19,33.18,33.18,0,0,0-1.95-6.29,32.8,32.8,0,0,0-3.07-5.68,33.52,33.52,0,0,0-9-9,33.13,33.13,0,0,0-5.67-3.09,32.77,32.77,0,0,0-6.27-1.95,33.52,33.52,0,0,0-6.72-.68H63.9c-.88,0-1.75,0-2.62.06s-1.75.08-2.61.15l-1.33.13a24.26,24.26,0,0,0-1.86-4.62,25,25,0,0,0-5.41-7A24.48,24.48,0,0,0,42.55,4a24.77,24.77,0,0,0-18.65.27A24.94,24.94,0,0,0,10.73,17.47a24.87,24.87,0,0,0-2,9.68,25.32,25.32,0,0,0,.64,5.63A25,25,0,0,0,11.23,38a25.51,25.51,0,0,0,2.84,4.58q.4.53.84,1a62.47,62.47,0,0,0-4.28,6.1A63.13,63.13,0,0,0,5.56,59.85,63.9,63.9,0,0,0,2.34,71.1,13.16,13.16,0,0,0,5.18,81.94a13.54,13.54,0,0,0,10.42,4.9H82.94a4,4,0,0,0,0-8H15.6a5.5,5.5,0,0,1-4.26-2,5.15,5.15,0,0,1-1.12-4.36A55.07,55.07,0,0,1,23.33,46a4,4,0,0,0,1-3,4,4,0,0,0-1.44-2.78,16.83,16.83,0,0,1-2.52-2.61,16.52,16.52,0,0,1-1.93-3.12A16.15,16.15,0,0,1,17.22,31a17,17,0,0,1-.44-3.84,16.76,16.76,0,0,1,1.32-6.57,16.73,16.73,0,0,1,21.53-9.17,16.65,16.65,0,0,1,5.09,3.14,16.94,16.94,0,0,1,5.49,10.57,4,4,0,0,0,4.66,3.46c.73-.12,1.47-.23,2.2-.33s1.5-.17,2.26-.23,1.51-.11,2.27-.14,1.53-.05,2.3-.05h2.92a25.7,25.7,0,0,1,5.12.52,24.89,24.89,0,0,1,4.75,1.48A24.45,24.45,0,0,1,81,32.17a25,25,0,0,1,3.77,3.12,26.05,26.05,0,0,1,3.09,3.77,25.34,25.34,0,0,1,2.33,4.32,25,25,0,0,1,1.48,4.78,26,26,0,0,1,.52,5.15,25.42,25.42,0,0,1-2,9.91,4,4,0,0,0,3.08,6.53H111a11.24,11.24,0,0,1,0,22.48H100.75a19.22,19.22,0,0,0-19.16,19.24v3.19a4,4,0,0,0,8,0v-3.19a11.21,11.21,0,0,1,11.16-11.24H111a19.24,19.24,0,0,0,0-38.48Z" style="fill: #6d2ca9"/>
    <ellipse cx="31.03" cy="62.59" rx="6.33" ry="6.37" style="fill: #6d2ca9"/>
  </g>
</svg>
